<?xml version="1.0" standalone="no"?>
 <!DOCTYPE svg PUBLIC "-//W3C//DTD SVG 1.1//EN" 
 "http://www.w3.org/Graphics/SVG/1.1/DTD/svg11.dtd"> 
<svg
  xmlns:svg="http://www.w3.org/2000/svg"
  xmlns="http://www.w3.org/2000/svg"
  xmlns:xlink="http://www.w3.org/1999/xlink"
  version="1.1"
  width="297.0022mm" height="210.0072mm" viewBox="0.0000 0.0000 297.0022 210.0072">
<title>SVG Image created as labotager-Edge_Cuts.svg date 2026/03/03 15:49:00 </title>
  <desc>Image generated by PCBNEW </desc>
<g style="fill:#000000; fill-opacity:1.0000;stroke:#000000; stroke-opacity:1.0000;
stroke-linecap:round; stroke-linejoin:round;"
 transform="translate(0 0) scale(1 1)">
</g>
<g style="fill:none; 
stroke:#000000; stroke-width:0.2000; stroke-opacity:1; 
stroke-linecap:round; stroke-linejoin:round;">
<path d="M192.0000 104.0000
L192.0000 109.0000
" />
<path d="M230.0000 43.0000
L230.0000 90.0000
" />
<path d="M230.0000 90.0000
L206.0000 90.0000
" />
<path d="M92.6569 43.0000
L230.0000 43.0000
" />
<path d="M70.0000 109.0000 A6.0000 6.0000 0.0 0 0 76.0000 115.0000" />
<path d="M70.0000 109.0000
L70.0000 65.6569
" />
<circle cx="143.5000" cy="49.0000" r="1.7500" /> 
<circle cx="218.5000" cy="84.0000" r="1.7500" /> 
<path d="M70.0000 65.6569
L92.6569 43.0000
" />
<path d="M186.0000 115.0000
L76.0000 115.0000
" />
<path d="M206.0000 90.0000 A14.0000 14.0000 0.0 0 0 192.0000 104.0000" />
<circle cx="76.0000" cy="109.0000" r="1.7500" /> 
<path d="M186.0000 115.0000 A6.0000 6.0000 0.0 0 0 192.0000 109.0000" />
</g>
<g style="fill:none; 
stroke:#000000; stroke-width:0.1000; stroke-opacity:1; 
stroke-linecap:round; stroke-linejoin:round;">
<circle cx="177.7450" cy="104.0000" r="1.5000" /> 
<circle cx="94.3500" cy="104.0000" r="1.5000" /> 
<circle cx="177.7450" cy="54.0000" r="1.5000" /> 
<circle cx="113.6550" cy="48.6000" r="1.5000" /> 
<circle cx="94.3450" cy="54.0000" r="1.5000" /> 
<circle cx="194.5500" cy="57.5000" r="3.2000" /> 
<path style="fill:none; 
stroke:#000000; stroke-width:0.1000; stroke-opacity:1; 
stroke-linecap:round; stroke-linejoin:round;fill:none"
d="M 91.3450,51.0000
180.7450,51.0000
180.7450,107.0000
91.3450,107.0000
Z" /> 
</g>
<g style="fill:none; 
stroke:#000000; stroke-width:0.1500; stroke-opacity:1; 
stroke-linecap:round; stroke-linejoin:round;">
<g transform="rotate(-90.000000 178.7500 79.0000)">
<text x="178.7500" y="79.5000"
transform="scale(-1 1) translate(-357.500000 0)"
textLength="1.9643" font-size="1.3333" lengthAdjust="spacingAndGlyphs"
text-anchor="middle" opacity="0" stroke-opacity="0">J9</text>
</g>
<g class="stroked-text"><desc>J9</desc>
<path d="M178.2048 78.6667
L178.9191 78.6667
" />
<path d="M178.9191 78.6667
L179.0620 78.6190
" />
<path d="M179.0620 78.6190
L179.1572 78.5238
" />
<path d="M179.1572 78.5238
L179.2048 78.3810
" />
<path d="M179.2048 78.3810
L179.2048 78.2857
" />
<path d="M179.2048 79.1905
L179.2048 79.3810
" />
<path d="M179.2048 79.3810
L179.1572 79.4762
" />
<path d="M179.1572 79.4762
L179.1096 79.5238
" />
<path d="M179.1096 79.5238
L178.9667 79.6190
" />
<path d="M178.9667 79.6190
L178.7762 79.6667
" />
<path d="M178.7762 79.6667
L178.3953 79.6667
" />
<path d="M178.3953 79.6667
L178.3001 79.6190
" />
<path d="M178.3001 79.6190
L178.2524 79.5714
" />
<path d="M178.2524 79.5714
L178.2048 79.4762
" />
<path d="M178.2048 79.4762
L178.2048 79.2857
" />
<path d="M178.2048 79.2857
L178.2524 79.1905
" />
<path d="M178.2524 79.1905
L178.3001 79.1429
" />
<path d="M178.3001 79.1429
L178.3953 79.0952
" />
<path d="M178.3953 79.0952
L178.6334 79.0952
" />
<path d="M178.6334 79.0952
L178.7286 79.1429
" />
<path d="M178.7286 79.1429
L178.7762 79.1905
" />
<path d="M178.7762 79.1905
L178.8239 79.2857
" />
<path d="M178.8239 79.2857
L178.8239 79.4762
" />
<path d="M178.8239 79.4762
L178.7762 79.5714
" />
<path d="M178.7762 79.5714
L178.7286 79.6190
" />
<path d="M178.7286 79.6190
L178.6334 79.6667
" />
</g></g>
<g style="fill:none; 
stroke:#000000; stroke-width:0.1000; stroke-opacity:1; 
stroke-linecap:round; stroke-linejoin:round;">
<path d="M187.8500 51.3000
L201.2500 51.3000
" />
<path d="M187.8500 63.7000
L187.8500 51.3000
" />
<path d="M197.1400 56.0000
L191.9600 56.0000
" />
<path d="M201.2500 51.3000
L201.2500 63.7000
" />
<path d="M201.2500 63.7000
L187.8500 63.7000
" />
<circle cx="194.5500" cy="57.5000" r="4.5000" /> 
<circle cx="194.5500" cy="57.5000" r="3.0000" /> 
<path d="M177.4800 66.3000
L177.4800 91.7000
" />
<path d="M177.4800 91.7000
L180.0200 91.7000
" />
<path d="M179.3850 66.3000
L177.4800 66.3000
" />
<path d="M180.0200 66.9350
L179.3850 66.3000
" />
<path d="M180.0200 91.7000
L180.0200 66.9350
" />
<text x="85.3000" y="77.6500"
textLength="1.5600" font-size="0.9333" lengthAdjust="spacingAndGlyphs"
text-anchor="middle" opacity="0" stroke-opacity="0">Q2</text>
<g class="stroked-text"><desc>Q2</desc>
<path d="M85.2333 77.6853
L85.1667 77.6520
" />
<path d="M85.1667 77.6520
L85.1000 77.5853
" />
<path d="M85.1000 77.5853
L85.0000 77.4853
" />
<path d="M85.0000 77.4853
L84.9333 77.4520
" />
<path d="M84.9333 77.4520
L84.8667 77.4520
" />
<path d="M84.9000 77.6186
L84.8333 77.5853
" />
<path d="M84.8333 77.5853
L84.7667 77.5186
" />
<path d="M84.7667 77.5186
L84.7333 77.3853
" />
<path d="M84.7333 77.3853
L84.7333 77.1520
" />
<path d="M84.7333 77.1520
L84.7667 77.0186
" />
<path d="M84.7667 77.0186
L84.8333 76.9520
" />
<path d="M84.8333 76.9520
L84.9000 76.9186
" />
<path d="M84.9000 76.9186
L85.0333 76.9186
" />
<path d="M85.0333 76.9186
L85.1000 76.9520
" />
<path d="M85.1000 76.9520
L85.1667 77.0186
" />
<path d="M85.1667 77.0186
L85.2000 77.1520
" />
<path d="M85.2000 77.1520
L85.2000 77.3853
" />
<path d="M85.2000 77.3853
L85.1667 77.5186
" />
<path d="M85.1667 77.5186
L85.1000 77.5853
" />
<path d="M85.1000 77.5853
L85.0333 77.6186
" />
<path d="M85.0333 77.6186
L84.9000 77.6186
" />
<path d="M85.4667 76.9853
L85.5000 76.9520
" />
<path d="M85.5000 76.9520
L85.5667 76.9186
" />
<path d="M85.5667 76.9186
L85.7333 76.9186
" />
<path d="M85.7333 76.9186
L85.8000 76.9520
" />
<path d="M85.8000 76.9520
L85.8333 76.9853
" />
<path d="M85.8333 76.9853
L85.8667 77.0520
" />
<path d="M85.8667 77.0520
L85.8667 77.1186
" />
<path d="M85.8667 77.1186
L85.8333 77.2186
" />
<path d="M85.8333 77.2186
L85.4333 77.6186
" />
<path d="M85.4333 77.6186
L85.8667 77.6186
" />
</g></g>
<g style="fill:none; 
stroke:#000000; stroke-width:0.0600; stroke-opacity:1; 
stroke-linecap:round; stroke-linejoin:round;">
<g transform="rotate(-90.000000 83.4000 85.4000)">
<text x="83.4000" y="85.6000"
textLength="0.8810" font-size="0.5333" lengthAdjust="spacingAndGlyphs"
text-anchor="middle" opacity="0" stroke-opacity="0">C3</text>
</g>
<g class="stroked-text"><desc>C3</desc>
<path d="M83.5438 85.4667
L83.5629 85.4857
" />
<path d="M83.5629 85.4857
L83.5819 85.5429
" />
<path d="M83.5819 85.5429
L83.5819 85.5810
" />
<path d="M83.5819 85.5810
L83.5629 85.6381
" />
<path d="M83.5629 85.6381
L83.5248 85.6762
" />
<path d="M83.5248 85.6762
L83.4867 85.6952
" />
<path d="M83.4867 85.6952
L83.4105 85.7143
" />
<path d="M83.4105 85.7143
L83.3534 85.7143
" />
<path d="M83.3534 85.7143
L83.2772 85.6952
" />
<path d="M83.2772 85.6952
L83.2391 85.6762
" />
<path d="M83.2391 85.6762
L83.2010 85.6381
" />
<path d="M83.2010 85.6381
L83.1819 85.5810
" />
<path d="M83.1819 85.5810
L83.1819 85.5429
" />
<path d="M83.1819 85.5429
L83.2010 85.4857
" />
<path d="M83.2010 85.4857
L83.2200 85.4667
" />
<path d="M83.1819 85.3333
L83.1819 85.0857
" />
<path d="M83.1819 85.0857
L83.3343 85.2190
" />
<path d="M83.3343 85.2190
L83.3343 85.1619
" />
<path d="M83.3343 85.1619
L83.3534 85.1238
" />
<path d="M83.3534 85.1238
L83.3724 85.1048
" />
<path d="M83.3724 85.1048
L83.4105 85.0857
" />
<path d="M83.4105 85.0857
L83.5057 85.0857
" />
<path d="M83.5057 85.0857
L83.5438 85.1048
" />
<path d="M83.5438 85.1048
L83.5629 85.1238
" />
<path d="M83.5629 85.1238
L83.5819 85.1619
" />
<path d="M83.5819 85.1619
L83.5819 85.2762
" />
<path d="M83.5819 85.2762
L83.5629 85.3143
" />
<path d="M83.5629 85.3143
L83.5438 85.3333
" />
</g><g transform="rotate(-90.000000 86.6000 80.7750)">
<text x="86.6000" y="80.9750"
textLength="1.2619" font-size="0.5333" lengthAdjust="spacingAndGlyphs"
text-anchor="middle" opacity="0" stroke-opacity="0">R11</text>
</g>
<g class="stroked-text"><desc>R11</desc>
<path d="M86.7819 81.0321
L86.5915 81.1655
" />
<path d="M86.7819 81.2607
L86.3819 81.2607
" />
<path d="M86.3819 81.2607
L86.3819 81.1083
" />
<path d="M86.3819 81.1083
L86.4010 81.0702
" />
<path d="M86.4010 81.0702
L86.4200 81.0512
" />
<path d="M86.4200 81.0512
L86.4581 81.0321
" />
<path d="M86.4581 81.0321
L86.5153 81.0321
" />
<path d="M86.5153 81.0321
L86.5534 81.0512
" />
<path d="M86.5534 81.0512
L86.5724 81.0702
" />
<path d="M86.5724 81.0702
L86.5915 81.1083
" />
<path d="M86.5915 81.1083
L86.5915 81.2607
" />
<path d="M86.7819 80.6512
L86.7819 80.8798
" />
<path d="M86.7819 80.7655
L86.3819 80.7655
" />
<path d="M86.3819 80.7655
L86.4391 80.8036
" />
<path d="M86.4391 80.8036
L86.4772 80.8417
" />
<path d="M86.4772 80.8417
L86.4962 80.8798
" />
<path d="M86.7819 80.2702
L86.7819 80.4988
" />
<path d="M86.7819 80.3845
L86.3819 80.3845
" />
<path d="M86.3819 80.3845
L86.4391 80.4226
" />
<path d="M86.4391 80.4226
L86.4772 80.4607
" />
<path d="M86.4772 80.4607
L86.4962 80.4988
" />
</g><text x="138.2000" y="58.8000"
textLength="0.8810" font-size="0.5333" lengthAdjust="spacingAndGlyphs"
text-anchor="middle" opacity="0" stroke-opacity="0">R2</text>
<g class="stroked-text"><desc>R2</desc>
<path d="M138.1333 58.7819
L138.0000 58.5915
" />
<path d="M137.9048 58.7819
L137.9048 58.3819
" />
<path d="M137.9048 58.3819
L138.0571 58.3819
" />
<path d="M138.0571 58.3819
L138.0952 58.4010
" />
<path d="M138.0952 58.4010
L138.1143 58.4200
" />
<path d="M138.1143 58.4200
L138.1333 58.4581
" />
<path d="M138.1333 58.4581
L138.1333 58.5153
" />
<path d="M138.1333 58.5153
L138.1143 58.5534
" />
<path d="M138.1143 58.5534
L138.0952 58.5724
" />
<path d="M138.0952 58.5724
L138.0571 58.5915
" />
<path d="M138.0571 58.5915
L137.9048 58.5915
" />
<path d="M138.2857 58.4200
L138.3048 58.4010
" />
<path d="M138.3048 58.4010
L138.3429 58.3819
" />
<path d="M138.3429 58.3819
L138.4381 58.3819
" />
<path d="M138.4381 58.3819
L138.4762 58.4010
" />
<path d="M138.4762 58.4010
L138.4952 58.4200
" />
<path d="M138.4952 58.4200
L138.5143 58.4581
" />
<path d="M138.5143 58.4581
L138.5143 58.4962
" />
<path d="M138.5143 58.4962
L138.4952 58.5534
" />
<path d="M138.4952 58.5534
L138.2667 58.7819
" />
<path d="M138.2667 58.7819
L138.5143 58.7819
" />
</g><text x="138.2000" y="60.6000"
textLength="0.8810" font-size="0.5333" lengthAdjust="spacingAndGlyphs"
text-anchor="middle" opacity="0" stroke-opacity="0">R7</text>
<g class="stroked-text"><desc>R7</desc>
<path d="M138.1333 60.5819
L138.0000 60.3915
" />
<path d="M137.9048 60.5819
L137.9048 60.1819
" />
<path d="M137.9048 60.1819
L138.0571 60.1819
" />
<path d="M138.0571 60.1819
L138.0952 60.2010
" />
<path d="M138.0952 60.2010
L138.1143 60.2200
" />
<path d="M138.1143 60.2200
L138.1333 60.2581
" />
<path d="M138.1333 60.2581
L138.1333 60.3153
" />
<path d="M138.1333 60.3153
L138.1143 60.3534
" />
<path d="M138.1143 60.3534
L138.0952 60.3724
" />
<path d="M138.0952 60.3724
L138.0571 60.3915
" />
<path d="M138.0571 60.3915
L137.9048 60.3915
" />
<path d="M138.2667 60.1819
L138.5333 60.1819
" />
<path d="M138.5333 60.1819
L138.3619 60.5819
" />
</g><g transform="rotate(-90.000000 112.0000 76.5000)">
<text x="112.0000" y="76.7000"
textLength="1.2619" font-size="0.5333" lengthAdjust="spacingAndGlyphs"
text-anchor="middle" opacity="0" stroke-opacity="0">C13</text>
</g>
<g class="stroked-text"><desc>C13</desc>
<path d="M112.1438 76.7571
L112.1629 76.7762
" />
<path d="M112.1629 76.7762
L112.1819 76.8333
" />
<path d="M112.1819 76.8333
L112.1819 76.8714
" />
<path d="M112.1819 76.8714
L112.1629 76.9286
" />
<path d="M112.1629 76.9286
L112.1248 76.9667
" />
<path d="M112.1248 76.9667
L112.0867 76.9857
" />
<path d="M112.0867 76.9857
L112.0105 77.0048
" />
<path d="M112.0105 77.0048
L111.9534 77.0048
" />
<path d="M111.9534 77.0048
L111.8772 76.9857
" />
<path d="M111.8772 76.9857
L111.8391 76.9667
" />
<path d="M111.8391 76.9667
L111.8010 76.9286
" />
<path d="M111.8010 76.9286
L111.7819 76.8714
" />
<path d="M111.7819 76.8714
L111.7819 76.8333
" />
<path d="M111.7819 76.8333
L111.8010 76.7762
" />
<path d="M111.8010 76.7762
L111.8200 76.7571
" />
<path d="M112.1819 76.3762
L112.1819 76.6048
" />
<path d="M112.1819 76.4905
L111.7819 76.4905
" />
<path d="M111.7819 76.4905
L111.8391 76.5286
" />
<path d="M111.8391 76.5286
L111.8772 76.5667
" />
<path d="M111.8772 76.5667
L111.8962 76.6048
" />
<path d="M111.7819 76.2429
L111.7819 75.9952
" />
<path d="M111.7819 75.9952
L111.9343 76.1286
" />
<path d="M111.9343 76.1286
L111.9343 76.0714
" />
<path d="M111.9343 76.0714
L111.9534 76.0333
" />
<path d="M111.9534 76.0333
L111.9724 76.0143
" />
<path d="M111.9724 76.0143
L112.0105 75.9952
" />
<path d="M112.0105 75.9952
L112.1057 75.9952
" />
<path d="M112.1057 75.9952
L112.1438 76.0143
" />
<path d="M112.1438 76.0143
L112.1629 76.0333
" />
<path d="M112.1629 76.0333
L112.1819 76.0714
" />
<path d="M112.1819 76.0714
L112.1819 76.1857
" />
<path d="M112.1819 76.1857
L112.1629 76.2238
" />
<path d="M112.1629 76.2238
L112.1438 76.2429
" />
</g><g transform="rotate(-90.000000 215.0000 70.9000)">
<text x="215.0000" y="71.1000"
textLength="0.8810" font-size="0.5333" lengthAdjust="spacingAndGlyphs"
text-anchor="middle" opacity="0" stroke-opacity="0">C8</text>
</g>
<g class="stroked-text"><desc>C8</desc>
<path d="M215.1438 70.9667
L215.1629 70.9857
" />
<path d="M215.1629 70.9857
L215.1819 71.0429
" />
<path d="M215.1819 71.0429
L215.1819 71.0810
" />
<path d="M215.1819 71.0810
L215.1629 71.1381
" />
<path d="M215.1629 71.1381
L215.1248 71.1762
" />
<path d="M215.1248 71.1762
L215.0867 71.1952
" />
<path d="M215.0867 71.1952
L215.0105 71.2143
" />
<path d="M215.0105 71.2143
L214.9534 71.2143
" />
<path d="M214.9534 71.2143
L214.8772 71.1952
" />
<path d="M214.8772 71.1952
L214.8391 71.1762
" />
<path d="M214.8391 71.1762
L214.8010 71.1381
" />
<path d="M214.8010 71.1381
L214.7819 71.0810
" />
<path d="M214.7819 71.0810
L214.7819 71.0429
" />
<path d="M214.7819 71.0429
L214.8010 70.9857
" />
<path d="M214.8010 70.9857
L214.8200 70.9667
" />
<path d="M214.9534 70.7381
L214.9343 70.7762
" />
<path d="M214.9343 70.7762
L214.9153 70.7952
" />
<path d="M214.9153 70.7952
L214.8772 70.8143
" />
<path d="M214.8772 70.8143
L214.8581 70.8143
" />
<path d="M214.8581 70.8143
L214.8200 70.7952
" />
<path d="M214.8200 70.7952
L214.8010 70.7762
" />
<path d="M214.8010 70.7762
L214.7819 70.7381
" />
<path d="M214.7819 70.7381
L214.7819 70.6619
" />
<path d="M214.7819 70.6619
L214.8010 70.6238
" />
<path d="M214.8010 70.6238
L214.8200 70.6048
" />
<path d="M214.8200 70.6048
L214.8581 70.5857
" />
<path d="M214.8581 70.5857
L214.8772 70.5857
" />
<path d="M214.8772 70.5857
L214.9153 70.6048
" />
<path d="M214.9153 70.6048
L214.9343 70.6238
" />
<path d="M214.9343 70.6238
L214.9534 70.6619
" />
<path d="M214.9534 70.6619
L214.9534 70.7381
" />
<path d="M214.9534 70.7381
L214.9724 70.7762
" />
<path d="M214.9724 70.7762
L214.9915 70.7952
" />
<path d="M214.9915 70.7952
L215.0295 70.8143
" />
<path d="M215.0295 70.8143
L215.1057 70.8143
" />
<path d="M215.1057 70.8143
L215.1438 70.7952
" />
<path d="M215.1438 70.7952
L215.1629 70.7762
" />
<path d="M215.1629 70.7762
L215.1819 70.7381
" />
<path d="M215.1819 70.7381
L215.1819 70.6619
" />
<path d="M215.1819 70.6619
L215.1629 70.6238
" />
<path d="M215.1629 70.6238
L215.1438 70.6048
" />
<path d="M215.1438 70.6048
L215.1057 70.5857
" />
<path d="M215.1057 70.5857
L215.0295 70.5857
" />
<path d="M215.0295 70.5857
L214.9915 70.6048
" />
<path d="M214.9915 70.6048
L214.9724 70.6238
" />
<path d="M214.9724 70.6238
L214.9534 70.6619
" />
</g><text x="182.5000" y="69.4000"
textLength="1.2619" font-size="0.5333" lengthAdjust="spacingAndGlyphs"
text-anchor="middle" opacity="0" stroke-opacity="0">C15</text>
<g class="stroked-text"><desc>C15</desc>
<path d="M182.2429 69.3438
L182.2238 69.3629
" />
<path d="M182.2238 69.3629
L182.1667 69.3819
" />
<path d="M182.1667 69.3819
L182.1286 69.3819
" />
<path d="M182.1286 69.3819
L182.0714 69.3629
" />
<path d="M182.0714 69.3629
L182.0333 69.3248
" />
<path d="M182.0333 69.3248
L182.0143 69.2867
" />
<path d="M182.0143 69.2867
L181.9952 69.2105
" />
<path d="M181.9952 69.2105
L181.9952 69.1534
" />
<path d="M181.9952 69.1534
L182.0143 69.0772
" />
<path d="M182.0143 69.0772
L182.0333 69.0391
" />
<path d="M182.0333 69.0391
L182.0714 69.0010
" />
<path d="M182.0714 69.0010
L182.1286 68.9819
" />
<path d="M182.1286 68.9819
L182.1667 68.9819
" />
<path d="M182.1667 68.9819
L182.2238 69.0010
" />
<path d="M182.2238 69.0010
L182.2429 69.0200
" />
<path d="M182.6238 69.3819
L182.3952 69.3819
" />
<path d="M182.5095 69.3819
L182.5095 68.9819
" />
<path d="M182.5095 68.9819
L182.4714 69.0391
" />
<path d="M182.4714 69.0391
L182.4333 69.0772
" />
<path d="M182.4333 69.0772
L182.3952 69.0962
" />
<path d="M182.9857 68.9819
L182.7952 68.9819
" />
<path d="M182.7952 68.9819
L182.7762 69.1724
" />
<path d="M182.7762 69.1724
L182.7952 69.1534
" />
<path d="M182.7952 69.1534
L182.8333 69.1343
" />
<path d="M182.8333 69.1343
L182.9286 69.1343
" />
<path d="M182.9286 69.1343
L182.9667 69.1534
" />
<path d="M182.9667 69.1534
L182.9857 69.1724
" />
<path d="M182.9857 69.1724
L183.0048 69.2105
" />
<path d="M183.0048 69.2105
L183.0048 69.3057
" />
<path d="M183.0048 69.3057
L182.9857 69.3438
" />
<path d="M182.9857 69.3438
L182.9667 69.3629
" />
<path d="M182.9667 69.3629
L182.9286 69.3819
" />
<path d="M182.9286 69.3819
L182.8333 69.3819
" />
<path d="M182.8333 69.3819
L182.7952 69.3629
" />
<path d="M182.7952 69.3629
L182.7762 69.3438
" />
</g><text x="80.8000" y="68.6000"
textLength="0.8810" font-size="0.5333" lengthAdjust="spacingAndGlyphs"
text-anchor="middle" opacity="0" stroke-opacity="0">C4</text>
<g class="stroked-text"><desc>C4</desc>
<path d="M80.7333 68.5438
L80.7143 68.5629
" />
<path d="M80.7143 68.5629
L80.6571 68.5819
" />
<path d="M80.6571 68.5819
L80.6190 68.5819
" />
<path d="M80.6190 68.5819
L80.5619 68.5629
" />
<path d="M80.5619 68.5629
L80.5238 68.5248
" />
<path d="M80.5238 68.5248
L80.5048 68.4867
" />
<path d="M80.5048 68.4867
L80.4857 68.4105
" />
<path d="M80.4857 68.4105
L80.4857 68.3534
" />
<path d="M80.4857 68.3534
L80.5048 68.2772
" />
<path d="M80.5048 68.2772
L80.5238 68.2391
" />
<path d="M80.5238 68.2391
L80.5619 68.2010
" />
<path d="M80.5619 68.2010
L80.6190 68.1819
" />
<path d="M80.6190 68.1819
L80.6571 68.1819
" />
<path d="M80.6571 68.1819
L80.7143 68.2010
" />
<path d="M80.7143 68.2010
L80.7333 68.2200
" />
<path d="M81.0762 68.3153
L81.0762 68.5819
" />
<path d="M80.9810 68.1629
L80.8857 68.4486
" />
<path d="M80.8857 68.4486
L81.1333 68.4486
" />
</g><text x="122.2500" y="79.2000"
textLength="0.8810" font-size="0.5333" lengthAdjust="spacingAndGlyphs"
text-anchor="middle" opacity="0" stroke-opacity="0">C9</text>
<g class="stroked-text"><desc>C9</desc>
<path d="M122.1833 79.1438
L122.1643 79.1629
" />
<path d="M122.1643 79.1629
L122.1071 79.1819
" />
<path d="M122.1071 79.1819
L122.0690 79.1819
" />
<path d="M122.0690 79.1819
L122.0119 79.1629
" />
<path d="M122.0119 79.1629
L121.9738 79.1248
" />
<path d="M121.9738 79.1248
L121.9548 79.0867
" />
<path d="M121.9548 79.0867
L121.9357 79.0105
" />
<path d="M121.9357 79.0105
L121.9357 78.9534
" />
<path d="M121.9357 78.9534
L121.9548 78.8772
" />
<path d="M121.9548 78.8772
L121.9738 78.8391
" />
<path d="M121.9738 78.8391
L122.0119 78.8010
" />
<path d="M122.0119 78.8010
L122.0690 78.7819
" />
<path d="M122.0690 78.7819
L122.1071 78.7819
" />
<path d="M122.1071 78.7819
L122.1643 78.8010
" />
<path d="M122.1643 78.8010
L122.1833 78.8200
" />
<path d="M122.3738 79.1819
L122.4500 79.1819
" />
<path d="M122.4500 79.1819
L122.4881 79.1629
" />
<path d="M122.4881 79.1629
L122.5071 79.1438
" />
<path d="M122.5071 79.1438
L122.5452 79.0867
" />
<path d="M122.5452 79.0867
L122.5643 79.0105
" />
<path d="M122.5643 79.0105
L122.5643 78.8581
" />
<path d="M122.5643 78.8581
L122.5452 78.8200
" />
<path d="M122.5452 78.8200
L122.5262 78.8010
" />
<path d="M122.5262 78.8010
L122.4881 78.7819
" />
<path d="M122.4881 78.7819
L122.4119 78.7819
" />
<path d="M122.4119 78.7819
L122.3738 78.8010
" />
<path d="M122.3738 78.8010
L122.3548 78.8200
" />
<path d="M122.3548 78.8200
L122.3357 78.8581
" />
<path d="M122.3357 78.8581
L122.3357 78.9534
" />
<path d="M122.3357 78.9534
L122.3548 78.9915
" />
<path d="M122.3548 78.9915
L122.3738 79.0105
" />
<path d="M122.3738 79.0105
L122.4119 79.0295
" />
<path d="M122.4119 79.0295
L122.4881 79.0295
" />
<path d="M122.4881 79.0295
L122.5262 79.0105
" />
<path d="M122.5262 79.0105
L122.5452 78.9915
" />
<path d="M122.5452 78.9915
L122.5643 78.9534
" />
</g><text x="182.5000" y="71.2000"
textLength="1.2619" font-size="0.5333" lengthAdjust="spacingAndGlyphs"
text-anchor="middle" opacity="0" stroke-opacity="0">C14</text>
<g class="stroked-text"><desc>C14</desc>
<path d="M182.2429 71.1438
L182.2238 71.1629
" />
<path d="M182.2238 71.1629
L182.1667 71.1819
" />
<path d="M182.1667 71.1819
L182.1286 71.1819
" />
<path d="M182.1286 71.1819
L182.0714 71.1629
" />
<path d="M182.0714 71.1629
L182.0333 71.1248
" />
<path d="M182.0333 71.1248
L182.0143 71.0867
" />
<path d="M182.0143 71.0867
L181.9952 71.0105
" />
<path d="M181.9952 71.0105
L181.9952 70.9534
" />
<path d="M181.9952 70.9534
L182.0143 70.8772
" />
<path d="M182.0143 70.8772
L182.0333 70.8391
" />
<path d="M182.0333 70.8391
L182.0714 70.8010
" />
<path d="M182.0714 70.8010
L182.1286 70.7819
" />
<path d="M182.1286 70.7819
L182.1667 70.7819
" />
<path d="M182.1667 70.7819
L182.2238 70.8010
" />
<path d="M182.2238 70.8010
L182.2429 70.8200
" />
<path d="M182.6238 71.1819
L182.3952 71.1819
" />
<path d="M182.5095 71.1819
L182.5095 70.7819
" />
<path d="M182.5095 70.7819
L182.4714 70.8391
" />
<path d="M182.4714 70.8391
L182.4333 70.8772
" />
<path d="M182.4333 70.8772
L182.3952 70.8962
" />
<path d="M182.9667 70.9153
L182.9667 71.1819
" />
<path d="M182.8714 70.7629
L182.7762 71.0486
" />
<path d="M182.7762 71.0486
L183.0238 71.0486
" />
</g><text x="138.2000" y="55.2000"
textLength="0.8810" font-size="0.5333" lengthAdjust="spacingAndGlyphs"
text-anchor="middle" opacity="0" stroke-opacity="0">R8</text>
<g class="stroked-text"><desc>R8</desc>
<path d="M138.1333 55.1819
L138.0000 54.9915
" />
<path d="M137.9048 55.1819
L137.9048 54.7819
" />
<path d="M137.9048 54.7819
L138.0571 54.7819
" />
<path d="M138.0571 54.7819
L138.0952 54.8010
" />
<path d="M138.0952 54.8010
L138.1143 54.8200
" />
<path d="M138.1143 54.8200
L138.1333 54.8581
" />
<path d="M138.1333 54.8581
L138.1333 54.9153
" />
<path d="M138.1333 54.9153
L138.1143 54.9534
" />
<path d="M138.1143 54.9534
L138.0952 54.9724
" />
<path d="M138.0952 54.9724
L138.0571 54.9915
" />
<path d="M138.0571 54.9915
L137.9048 54.9915
" />
<path d="M138.3619 54.9534
L138.3238 54.9343
" />
<path d="M138.3238 54.9343
L138.3048 54.9153
" />
<path d="M138.3048 54.9153
L138.2857 54.8772
" />
<path d="M138.2857 54.8772
L138.2857 54.8581
" />
<path d="M138.2857 54.8581
L138.3048 54.8200
" />
<path d="M138.3048 54.8200
L138.3238 54.8010
" />
<path d="M138.3238 54.8010
L138.3619 54.7819
" />
<path d="M138.3619 54.7819
L138.4381 54.7819
" />
<path d="M138.4381 54.7819
L138.4762 54.8010
" />
<path d="M138.4762 54.8010
L138.4952 54.8200
" />
<path d="M138.4952 54.8200
L138.5143 54.8581
" />
<path d="M138.5143 54.8581
L138.5143 54.8772
" />
<path d="M138.5143 54.8772
L138.4952 54.9153
" />
<path d="M138.4952 54.9153
L138.4762 54.9343
" />
<path d="M138.4762 54.9343
L138.4381 54.9534
" />
<path d="M138.4381 54.9534
L138.3619 54.9534
" />
<path d="M138.3619 54.9534
L138.3238 54.9724
" />
<path d="M138.3238 54.9724
L138.3048 54.9915
" />
<path d="M138.3048 54.9915
L138.2857 55.0295
" />
<path d="M138.2857 55.0295
L138.2857 55.1057
" />
<path d="M138.2857 55.1057
L138.3048 55.1438
" />
<path d="M138.3048 55.1438
L138.3238 55.1629
" />
<path d="M138.3238 55.1629
L138.3619 55.1819
" />
<path d="M138.3619 55.1819
L138.4381 55.1819
" />
<path d="M138.4381 55.1819
L138.4762 55.1629
" />
<path d="M138.4762 55.1629
L138.4952 55.1438
" />
<path d="M138.4952 55.1438
L138.5143 55.1057
" />
<path d="M138.5143 55.1057
L138.5143 55.0295
" />
<path d="M138.5143 55.0295
L138.4952 54.9915
" />
<path d="M138.4952 54.9915
L138.4762 54.9724
" />
<path d="M138.4762 54.9724
L138.4381 54.9534
" />
</g><g transform="rotate(-90.000000 157.0500 76.5000)">
<text x="157.0500" y="76.7000"
textLength="0.8810" font-size="0.5333" lengthAdjust="spacingAndGlyphs"
text-anchor="middle" opacity="0" stroke-opacity="0">C2</text>
</g>
<g class="stroked-text"><desc>C2</desc>
<path d="M157.1938 76.5667
L157.2129 76.5857
" />
<path d="M157.2129 76.5857
L157.2319 76.6429
" />
<path d="M157.2319 76.6429
L157.2319 76.6810
" />
<path d="M157.2319 76.6810
L157.2129 76.7381
" />
<path d="M157.2129 76.7381
L157.1748 76.7762
" />
<path d="M157.1748 76.7762
L157.1367 76.7952
" />
<path d="M157.1367 76.7952
L157.0605 76.8143
" />
<path d="M157.0605 76.8143
L157.0034 76.8143
" />
<path d="M157.0034 76.8143
L156.9272 76.7952
" />
<path d="M156.9272 76.7952
L156.8891 76.7762
" />
<path d="M156.8891 76.7762
L156.8510 76.7381
" />
<path d="M156.8510 76.7381
L156.8319 76.6810
" />
<path d="M156.8319 76.6810
L156.8319 76.6429
" />
<path d="M156.8319 76.6429
L156.8510 76.5857
" />
<path d="M156.8510 76.5857
L156.8700 76.5667
" />
<path d="M156.8700 76.4143
L156.8510 76.3952
" />
<path d="M156.8510 76.3952
L156.8319 76.3571
" />
<path d="M156.8319 76.3571
L156.8319 76.2619
" />
<path d="M156.8319 76.2619
L156.8510 76.2238
" />
<path d="M156.8510 76.2238
L156.8700 76.2048
" />
<path d="M156.8700 76.2048
L156.9081 76.1857
" />
<path d="M156.9081 76.1857
L156.9462 76.1857
" />
<path d="M156.9462 76.1857
L157.0034 76.2048
" />
<path d="M157.0034 76.2048
L157.2319 76.4333
" />
<path d="M157.2319 76.4333
L157.2319 76.1857
" />
</g></g>
<g style="fill:none; 
stroke:#000000; stroke-width:0.1500; stroke-opacity:1; 
stroke-linecap:round; stroke-linejoin:round;">
<text x="127.0000" y="49.5000"
textLength="1.9643" font-size="1.3333" lengthAdjust="spacingAndGlyphs"
text-anchor="middle" opacity="0" stroke-opacity="0">J7</text>
<g class="stroked-text"><desc>J7</desc>
<path d="M126.6667 48.4548
L126.6667 49.1691
" />
<path d="M126.6667 49.1691
L126.6190 49.3120
" />
<path d="M126.6190 49.3120
L126.5238 49.4072
" />
<path d="M126.5238 49.4072
L126.3810 49.4548
" />
<path d="M126.3810 49.4548
L126.2857 49.4548
" />
<path d="M127.0476 48.4548
L127.7143 48.4548
" />
<path d="M127.7143 48.4548
L127.2857 49.4548
" />
</g><text x="108.0000" y="52.1000"
textLength="2.9643" font-size="1.3333" lengthAdjust="spacingAndGlyphs"
text-anchor="middle" opacity="0" stroke-opacity="0">BT1</text>
<g class="stroked-text"><desc>BT1</desc>
<path d="M107.2143 51.5310
L107.3571 51.5786
" />
<path d="M107.3571 51.5786
L107.4048 51.6262
" />
<path d="M107.4048 51.6262
L107.4524 51.7215
" />
<path d="M107.4524 51.7215
L107.4524 51.8643
" />
<path d="M107.4524 51.8643
L107.4048 51.9596
" />
<path d="M107.4048 51.9596
L107.3571 52.0072
" />
<path d="M107.3571 52.0072
L107.2619 52.0548
" />
<path d="M107.2619 52.0548
L106.8810 52.0548
" />
<path d="M106.8810 52.0548
L106.8810 51.0548
" />
<path d="M106.8810 51.0548
L107.2143 51.0548
" />
<path d="M107.2143 51.0548
L107.3095 51.1024
" />
<path d="M107.3095 51.1024
L107.3571 51.1501
" />
<path d="M107.3571 51.1501
L107.4048 51.2453
" />
<path d="M107.4048 51.2453
L107.4048 51.3405
" />
<path d="M107.4048 51.3405
L107.3571 51.4358
" />
<path d="M107.3571 51.4358
L107.3095 51.4834
" />
<path d="M107.3095 51.4834
L107.2143 51.5310
" />
<path d="M107.2143 51.5310
L106.8810 51.5310
" />
<path d="M107.7381 51.0548
L108.3095 51.0548
" />
<path d="M108.0238 52.0548
L108.0238 51.0548
" />
<path d="M109.1667 52.0548
L108.5952 52.0548
" />
<path d="M108.8810 52.0548
L108.8810 51.0548
" />
<path d="M108.8810 51.0548
L108.7857 51.1977
" />
<path d="M108.7857 51.1977
L108.6905 51.2929
" />
<path d="M108.6905 51.2929
L108.5952 51.3405
" />
</g></g>
<g style="fill:none; 
stroke:#000000; stroke-width:0.0600; stroke-opacity:1; 
stroke-linecap:round; stroke-linejoin:round;">
<g transform="rotate(-90.000000 115.4000 70.7000)">
<text x="115.4000" y="70.9000"
textLength="1.2619" font-size="0.5333" lengthAdjust="spacingAndGlyphs"
text-anchor="middle" opacity="0" stroke-opacity="0">R14</text>
</g>
<g class="stroked-text"><desc>R14</desc>
<path d="M115.5819 70.9571
L115.3915 71.0905
" />
<path d="M115.5819 71.1857
L115.1819 71.1857
" />
<path d="M115.1819 71.1857
L115.1819 71.0333
" />
<path d="M115.1819 71.0333
L115.2010 70.9952
" />
<path d="M115.2010 70.9952
L115.2200 70.9762
" />
<path d="M115.2200 70.9762
L115.2581 70.9571
" />
<path d="M115.2581 70.9571
L115.3153 70.9571
" />
<path d="M115.3153 70.9571
L115.3534 70.9762
" />
<path d="M115.3534 70.9762
L115.3724 70.9952
" />
<path d="M115.3724 70.9952
L115.3915 71.0333
" />
<path d="M115.3915 71.0333
L115.3915 71.1857
" />
<path d="M115.5819 70.5762
L115.5819 70.8048
" />
<path d="M115.5819 70.6905
L115.1819 70.6905
" />
<path d="M115.1819 70.6905
L115.2391 70.7286
" />
<path d="M115.2391 70.7286
L115.2772 70.7667
" />
<path d="M115.2772 70.7667
L115.2962 70.8048
" />
<path d="M115.3153 70.2333
L115.5819 70.2333
" />
<path d="M115.1629 70.3286
L115.4486 70.4238
" />
<path d="M115.4486 70.4238
L115.4486 70.1762
" />
</g><g transform="rotate(-90.000000 115.4000 67.6000)">
<text x="115.4000" y="67.8000"
textLength="1.2619" font-size="0.5333" lengthAdjust="spacingAndGlyphs"
text-anchor="middle" opacity="0" stroke-opacity="0">R15</text>
</g>
<g class="stroked-text"><desc>R15</desc>
<path d="M115.5819 67.8571
L115.3915 67.9905
" />
<path d="M115.5819 68.0857
L115.1819 68.0857
" />
<path d="M115.1819 68.0857
L115.1819 67.9333
" />
<path d="M115.1819 67.9333
L115.2010 67.8952
" />
<path d="M115.2010 67.8952
L115.2200 67.8762
" />
<path d="M115.2200 67.8762
L115.2581 67.8571
" />
<path d="M115.2581 67.8571
L115.3153 67.8571
" />
<path d="M115.3153 67.8571
L115.3534 67.8762
" />
<path d="M115.3534 67.8762
L115.3724 67.8952
" />
<path d="M115.3724 67.8952
L115.3915 67.9333
" />
<path d="M115.3915 67.9333
L115.3915 68.0857
" />
<path d="M115.5819 67.4762
L115.5819 67.7048
" />
<path d="M115.5819 67.5905
L115.1819 67.5905
" />
<path d="M115.1819 67.5905
L115.2391 67.6286
" />
<path d="M115.2391 67.6286
L115.2772 67.6667
" />
<path d="M115.2772 67.6667
L115.2962 67.7048
" />
<path d="M115.1819 67.1143
L115.1819 67.3048
" />
<path d="M115.1819 67.3048
L115.3724 67.3238
" />
<path d="M115.3724 67.3238
L115.3534 67.3048
" />
<path d="M115.3534 67.3048
L115.3343 67.2667
" />
<path d="M115.3343 67.2667
L115.3343 67.1714
" />
<path d="M115.3343 67.1714
L115.3534 67.1333
" />
<path d="M115.3534 67.1333
L115.3724 67.1143
" />
<path d="M115.3724 67.1143
L115.4105 67.0952
" />
<path d="M115.4105 67.0952
L115.5057 67.0952
" />
<path d="M115.5057 67.0952
L115.5438 67.1143
" />
<path d="M115.5438 67.1143
L115.5629 67.1333
" />
<path d="M115.5629 67.1333
L115.5819 67.1714
" />
<path d="M115.5819 67.1714
L115.5819 67.2667
" />
<path d="M115.5819 67.2667
L115.5629 67.3048
" />
<path d="M115.5629 67.3048
L115.5438 67.3238
" />
</g><g transform="rotate(-90.000000 113.7500 76.5000)">
<text x="113.7500" y="76.7000"
textLength="1.2619" font-size="0.5333" lengthAdjust="spacingAndGlyphs"
text-anchor="middle" opacity="0" stroke-opacity="0">C12</text>
</g>
<g class="stroked-text"><desc>C12</desc>
<path d="M113.8938 76.7571
L113.9129 76.7762
" />
<path d="M113.9129 76.7762
L113.9319 76.8333
" />
<path d="M113.9319 76.8333
L113.9319 76.8714
" />
<path d="M113.9319 76.8714
L113.9129 76.9286
" />
<path d="M113.9129 76.9286
L113.8748 76.9667
" />
<path d="M113.8748 76.9667
L113.8367 76.9857
" />
<path d="M113.8367 76.9857
L113.7605 77.0048
" />
<path d="M113.7605 77.0048
L113.7034 77.0048
" />
<path d="M113.7034 77.0048
L113.6272 76.9857
" />
<path d="M113.6272 76.9857
L113.5891 76.9667
" />
<path d="M113.5891 76.9667
L113.5510 76.9286
" />
<path d="M113.5510 76.9286
L113.5319 76.8714
" />
<path d="M113.5319 76.8714
L113.5319 76.8333
" />
<path d="M113.5319 76.8333
L113.5510 76.7762
" />
<path d="M113.5510 76.7762
L113.5700 76.7571
" />
<path d="M113.9319 76.3762
L113.9319 76.6048
" />
<path d="M113.9319 76.4905
L113.5319 76.4905
" />
<path d="M113.5319 76.4905
L113.5891 76.5286
" />
<path d="M113.5891 76.5286
L113.6272 76.5667
" />
<path d="M113.6272 76.5667
L113.6462 76.6048
" />
<path d="M113.5700 76.2238
L113.5510 76.2048
" />
<path d="M113.5510 76.2048
L113.5319 76.1667
" />
<path d="M113.5319 76.1667
L113.5319 76.0714
" />
<path d="M113.5319 76.0714
L113.5510 76.0333
" />
<path d="M113.5510 76.0333
L113.5700 76.0143
" />
<path d="M113.5700 76.0143
L113.6081 75.9952
" />
<path d="M113.6081 75.9952
L113.6462 75.9952
" />
<path d="M113.6462 75.9952
L113.7034 76.0143
" />
<path d="M113.7034 76.0143
L113.9319 76.2429
" />
<path d="M113.9319 76.2429
L113.9319 75.9952
" />
</g><text x="122.2500" y="77.4500"
textLength="1.2619" font-size="0.5333" lengthAdjust="spacingAndGlyphs"
text-anchor="middle" opacity="0" stroke-opacity="0">C10</text>
<g class="stroked-text"><desc>C10</desc>
<path d="M121.9929 77.3938
L121.9738 77.4129
" />
<path d="M121.9738 77.4129
L121.9167 77.4319
" />
<path d="M121.9167 77.4319
L121.8786 77.4319
" />
<path d="M121.8786 77.4319
L121.8214 77.4129
" />
<path d="M121.8214 77.4129
L121.7833 77.3748
" />
<path d="M121.7833 77.3748
L121.7643 77.3367
" />
<path d="M121.7643 77.3367
L121.7452 77.2605
" />
<path d="M121.7452 77.2605
L121.7452 77.2034
" />
<path d="M121.7452 77.2034
L121.7643 77.1272
" />
<path d="M121.7643 77.1272
L121.7833 77.0891
" />
<path d="M121.7833 77.0891
L121.8214 77.0510
" />
<path d="M121.8214 77.0510
L121.8786 77.0319
" />
<path d="M121.8786 77.0319
L121.9167 77.0319
" />
<path d="M121.9167 77.0319
L121.9738 77.0510
" />
<path d="M121.9738 77.0510
L121.9929 77.0700
" />
<path d="M122.3738 77.4319
L122.1452 77.4319
" />
<path d="M122.2595 77.4319
L122.2595 77.0319
" />
<path d="M122.2595 77.0319
L122.2214 77.0891
" />
<path d="M122.2214 77.0891
L122.1833 77.1272
" />
<path d="M122.1833 77.1272
L122.1452 77.1462
" />
<path d="M122.6214 77.0319
L122.6595 77.0319
" />
<path d="M122.6595 77.0319
L122.6976 77.0510
" />
<path d="M122.6976 77.0510
L122.7167 77.0700
" />
<path d="M122.7167 77.0700
L122.7357 77.1081
" />
<path d="M122.7357 77.1081
L122.7548 77.1843
" />
<path d="M122.7548 77.1843
L122.7548 77.2795
" />
<path d="M122.7548 77.2795
L122.7357 77.3557
" />
<path d="M122.7357 77.3557
L122.7167 77.3938
" />
<path d="M122.7167 77.3938
L122.6976 77.4129
" />
<path d="M122.6976 77.4129
L122.6595 77.4319
" />
<path d="M122.6595 77.4319
L122.6214 77.4319
" />
<path d="M122.6214 77.4319
L122.5833 77.4129
" />
<path d="M122.5833 77.4129
L122.5643 77.3938
" />
<path d="M122.5643 77.3938
L122.5452 77.3557
" />
<path d="M122.5452 77.3557
L122.5262 77.2795
" />
<path d="M122.5262 77.2795
L122.5262 77.1843
" />
<path d="M122.5262 77.1843
L122.5452 77.1081
" />
<path d="M122.5452 77.1081
L122.5643 77.0700
" />
<path d="M122.5643 77.0700
L122.5833 77.0510
" />
<path d="M122.5833 77.0510
L122.6214 77.0319
" />
</g><g transform="rotate(-90.000000 85.0000 80.7750)">
<text x="85.0000" y="80.9750"
textLength="1.2619" font-size="0.5333" lengthAdjust="spacingAndGlyphs"
text-anchor="middle" opacity="0" stroke-opacity="0">R12</text>
</g>
<g class="stroked-text"><desc>R12</desc>
<path d="M85.1819 81.0321
L84.9915 81.1655
" />
<path d="M85.1819 81.2607
L84.7819 81.2607
" />
<path d="M84.7819 81.2607
L84.7819 81.1083
" />
<path d="M84.7819 81.1083
L84.8010 81.0702
" />
<path d="M84.8010 81.0702
L84.8200 81.0512
" />
<path d="M84.8200 81.0512
L84.8581 81.0321
" />
<path d="M84.8581 81.0321
L84.9153 81.0321
" />
<path d="M84.9153 81.0321
L84.9534 81.0512
" />
<path d="M84.9534 81.0512
L84.9724 81.0702
" />
<path d="M84.9724 81.0702
L84.9915 81.1083
" />
<path d="M84.9915 81.1083
L84.9915 81.2607
" />
<path d="M85.1819 80.6512
L85.1819 80.8798
" />
<path d="M85.1819 80.7655
L84.7819 80.7655
" />
<path d="M84.7819 80.7655
L84.8391 80.8036
" />
<path d="M84.8391 80.8036
L84.8772 80.8417
" />
<path d="M84.8772 80.8417
L84.8962 80.8798
" />
<path d="M84.8200 80.4988
L84.8010 80.4798
" />
<path d="M84.8010 80.4798
L84.7819 80.4417
" />
<path d="M84.7819 80.4417
L84.7819 80.3464
" />
<path d="M84.7819 80.3464
L84.8010 80.3083
" />
<path d="M84.8010 80.3083
L84.8200 80.2893
" />
<path d="M84.8200 80.2893
L84.8581 80.2702
" />
<path d="M84.8581 80.2702
L84.8962 80.2702
" />
<path d="M84.8962 80.2702
L84.9534 80.2893
" />
<path d="M84.9534 80.2893
L85.1819 80.5179
" />
<path d="M85.1819 80.5179
L85.1819 80.2702
" />
</g><text x="138.2000" y="62.4000"
textLength="0.8810" font-size="0.5333" lengthAdjust="spacingAndGlyphs"
text-anchor="middle" opacity="0" stroke-opacity="0">R3</text>
<g class="stroked-text"><desc>R3</desc>
<path d="M138.1333 62.3819
L138.0000 62.1915
" />
<path d="M137.9048 62.3819
L137.9048 61.9819
" />
<path d="M137.9048 61.9819
L138.0571 61.9819
" />
<path d="M138.0571 61.9819
L138.0952 62.0010
" />
<path d="M138.0952 62.0010
L138.1143 62.0200
" />
<path d="M138.1143 62.0200
L138.1333 62.0581
" />
<path d="M138.1333 62.0581
L138.1333 62.1153
" />
<path d="M138.1333 62.1153
L138.1143 62.1534
" />
<path d="M138.1143 62.1534
L138.0952 62.1724
" />
<path d="M138.0952 62.1724
L138.0571 62.1915
" />
<path d="M138.0571 62.1915
L137.9048 62.1915
" />
<path d="M138.2667 61.9819
L138.5143 61.9819
" />
<path d="M138.5143 61.9819
L138.3810 62.1343
" />
<path d="M138.3810 62.1343
L138.4381 62.1343
" />
<path d="M138.4381 62.1343
L138.4762 62.1534
" />
<path d="M138.4762 62.1534
L138.4952 62.1724
" />
<path d="M138.4952 62.1724
L138.5143 62.2105
" />
<path d="M138.5143 62.2105
L138.5143 62.3057
" />
<path d="M138.5143 62.3057
L138.4952 62.3438
" />
<path d="M138.4952 62.3438
L138.4762 62.3629
" />
<path d="M138.4762 62.3629
L138.4381 62.3819
" />
<path d="M138.4381 62.3819
L138.3238 62.3819
" />
<path d="M138.3238 62.3819
L138.2857 62.3629
" />
<path d="M138.2857 62.3629
L138.2667 62.3438
" />
</g><text x="138.2000" y="57.0000"
textLength="0.8810" font-size="0.5333" lengthAdjust="spacingAndGlyphs"
text-anchor="middle" opacity="0" stroke-opacity="0">R4</text>
<g class="stroked-text"><desc>R4</desc>
<path d="M138.1333 56.9819
L138.0000 56.7915
" />
<path d="M137.9048 56.9819
L137.9048 56.5819
" />
<path d="M137.9048 56.5819
L138.0571 56.5819
" />
<path d="M138.0571 56.5819
L138.0952 56.6010
" />
<path d="M138.0952 56.6010
L138.1143 56.6200
" />
<path d="M138.1143 56.6200
L138.1333 56.6581
" />
<path d="M138.1333 56.6581
L138.1333 56.7153
" />
<path d="M138.1333 56.7153
L138.1143 56.7534
" />
<path d="M138.1143 56.7534
L138.0952 56.7724
" />
<path d="M138.0952 56.7724
L138.0571 56.7915
" />
<path d="M138.0571 56.7915
L137.9048 56.7915
" />
<path d="M138.4762 56.7153
L138.4762 56.9819
" />
<path d="M138.3810 56.5629
L138.2857 56.8486
" />
<path d="M138.2857 56.8486
L138.5333 56.8486
" />
</g><text x="138.2000" y="64.2000"
textLength="0.8810" font-size="0.5333" lengthAdjust="spacingAndGlyphs"
text-anchor="middle" opacity="0" stroke-opacity="0">R1</text>
<g class="stroked-text"><desc>R1</desc>
<path d="M138.1333 64.1819
L138.0000 63.9915
" />
<path d="M137.9048 64.1819
L137.9048 63.7819
" />
<path d="M137.9048 63.7819
L138.0571 63.7819
" />
<path d="M138.0571 63.7819
L138.0952 63.8010
" />
<path d="M138.0952 63.8010
L138.1143 63.8200
" />
<path d="M138.1143 63.8200
L138.1333 63.8581
" />
<path d="M138.1333 63.8581
L138.1333 63.9153
" />
<path d="M138.1333 63.9153
L138.1143 63.9534
" />
<path d="M138.1143 63.9534
L138.0952 63.9724
" />
<path d="M138.0952 63.9724
L138.0571 63.9915
" />
<path d="M138.0571 63.9915
L137.9048 63.9915
" />
<path d="M138.5143 64.1819
L138.2857 64.1819
" />
<path d="M138.4000 64.1819
L138.4000 63.7819
" />
<path d="M138.4000 63.7819
L138.3619 63.8391
" />
<path d="M138.3619 63.8391
L138.3238 63.8772
" />
<path d="M138.3238 63.8772
L138.2857 63.8962
" />
</g></g>
<g style="fill:none; 
stroke:#000000; stroke-width:0.1500; stroke-opacity:1; 
stroke-linecap:round; stroke-linejoin:round;">
<text x="177.7450" y="54.5000"
textLength="4.5357" font-size="1.3333" lengthAdjust="spacingAndGlyphs"
text-anchor="middle" opacity="0" stroke-opacity="0">REF**</text>
<g class="stroked-text"><desc>REF**</desc>
<path d="M176.4117 54.4548
L176.0783 53.9786
" />
<path d="M175.8402 54.4548
L175.8402 53.4548
" />
<path d="M175.8402 53.4548
L176.2212 53.4548
" />
<path d="M176.2212 53.4548
L176.3164 53.5024
" />
<path d="M176.3164 53.5024
L176.3640 53.5501
" />
<path d="M176.3640 53.5501
L176.4117 53.6453
" />
<path d="M176.4117 53.6453
L176.4117 53.7882
" />
<path d="M176.4117 53.7882
L176.3640 53.8834
" />
<path d="M176.3640 53.8834
L176.3164 53.9310
" />
<path d="M176.3164 53.9310
L176.2212 53.9786
" />
<path d="M176.2212 53.9786
L175.8402 53.9786
" />
<path d="M176.8402 53.9310
L177.1736 53.9310
" />
<path d="M177.3164 54.4548
L176.8402 54.4548
" />
<path d="M176.8402 54.4548
L176.8402 53.4548
" />
<path d="M176.8402 53.4548
L177.3164 53.4548
" />
<path d="M178.0783 53.9310
L177.7450 53.9310
" />
<path d="M177.7450 54.4548
L177.7450 53.4548
" />
<path d="M177.7450 53.4548
L178.2212 53.4548
" />
<path d="M178.7450 53.4548
L178.7450 53.6929
" />
<path d="M178.5069 53.5977
L178.7450 53.6929
" />
<path d="M178.7450 53.6929
L178.9831 53.5977
" />
<path d="M178.6021 53.8834
L178.7450 53.6929
" />
<path d="M178.7450 53.6929
L178.8879 53.8834
" />
<path d="M179.5069 53.4548
L179.5069 53.6929
" />
<path d="M179.2688 53.5977
L179.5069 53.6929
" />
<path d="M179.5069 53.6929
L179.7450 53.5977
" />
<path d="M179.3640 53.8834
L179.5069 53.6929
" />
<path d="M179.5069 53.6929
L179.6498 53.8834
" />
</g><text x="127.0000" y="59.0000"
textLength="1.9643" font-size="1.3333" lengthAdjust="spacingAndGlyphs"
text-anchor="middle" opacity="0" stroke-opacity="0">J6</text>
<g class="stroked-text"><desc>J6</desc>
<path d="M126.6667 57.9548
L126.6667 58.6691
" />
<path d="M126.6667 58.6691
L126.6190 58.8120
" />
<path d="M126.6190 58.8120
L126.5238 58.9072
" />
<path d="M126.5238 58.9072
L126.3810 58.9548
" />
<path d="M126.3810 58.9548
L126.2857 58.9548
" />
<path d="M127.5714 57.9548
L127.3810 57.9548
" />
<path d="M127.3810 57.9548
L127.2857 58.0024
" />
<path d="M127.2857 58.0024
L127.2381 58.0501
" />
<path d="M127.2381 58.0501
L127.1429 58.1929
" />
<path d="M127.1429 58.1929
L127.0952 58.3834
" />
<path d="M127.0952 58.3834
L127.0952 58.7643
" />
<path d="M127.0952 58.7643
L127.1429 58.8596
" />
<path d="M127.1429 58.8596
L127.1905 58.9072
" />
<path d="M127.1905 58.9072
L127.2857 58.9548
" />
<path d="M127.2857 58.9548
L127.4762 58.9548
" />
<path d="M127.4762 58.9548
L127.5714 58.9072
" />
<path d="M127.5714 58.9072
L127.6190 58.8596
" />
<path d="M127.6190 58.8596
L127.6667 58.7643
" />
<path d="M127.6667 58.7643
L127.6667 58.5262
" />
<path d="M127.6667 58.5262
L127.6190 58.4310
" />
<path d="M127.6190 58.4310
L127.5714 58.3834
" />
<path d="M127.5714 58.3834
L127.4762 58.3358
" />
<path d="M127.4762 58.3358
L127.2857 58.3358
" />
<path d="M127.2857 58.3358
L127.1905 58.3834
" />
<path d="M127.1905 58.3834
L127.1429 58.4310
" />
<path d="M127.1429 58.4310
L127.0952 58.5262
" />
</g></g>
<g style="fill:none; 
stroke:#000000; stroke-width:0.1000; stroke-opacity:1; 
stroke-linecap:round; stroke-linejoin:round;">
<text x="85.3000" y="89.2500"
textLength="1.5600" font-size="0.9333" lengthAdjust="spacingAndGlyphs"
text-anchor="middle" opacity="0" stroke-opacity="0">Q1</text>
<g class="stroked-text"><desc>Q1</desc>
<path d="M85.2333 89.2853
L85.1667 89.2520
" />
<path d="M85.1667 89.2520
L85.1000 89.1853
" />
<path d="M85.1000 89.1853
L85.0000 89.0853
" />
<path d="M85.0000 89.0853
L84.9333 89.0520
" />
<path d="M84.9333 89.0520
L84.8667 89.0520
" />
<path d="M84.9000 89.2186
L84.8333 89.1853
" />
<path d="M84.8333 89.1853
L84.7667 89.1186
" />
<path d="M84.7667 89.1186
L84.7333 88.9853
" />
<path d="M84.7333 88.9853
L84.7333 88.7520
" />
<path d="M84.7333 88.7520
L84.7667 88.6186
" />
<path d="M84.7667 88.6186
L84.8333 88.5520
" />
<path d="M84.8333 88.5520
L84.9000 88.5186
" />
<path d="M84.9000 88.5186
L85.0333 88.5186
" />
<path d="M85.0333 88.5186
L85.1000 88.5520
" />
<path d="M85.1000 88.5520
L85.1667 88.6186
" />
<path d="M85.1667 88.6186
L85.2000 88.7520
" />
<path d="M85.2000 88.7520
L85.2000 88.9853
" />
<path d="M85.2000 88.9853
L85.1667 89.1186
" />
<path d="M85.1667 89.1186
L85.1000 89.1853
" />
<path d="M85.1000 89.1853
L85.0333 89.2186
" />
<path d="M85.0333 89.2186
L84.9000 89.2186
" />
<path d="M85.8667 89.2186
L85.4667 89.2186
" />
<path d="M85.6667 89.2186
L85.6667 88.5186
" />
<path d="M85.6667 88.5186
L85.6000 88.6186
" />
<path d="M85.6000 88.6186
L85.5333 88.6853
" />
<path d="M85.5333 88.6853
L85.4667 88.7186
" />
</g></g>
<g style="fill:none; 
stroke:#000000; stroke-width:0.1500; stroke-opacity:1; 
stroke-linecap:round; stroke-linejoin:round;">
<text x="94.3450" y="54.5000"
textLength="4.5357" font-size="1.3333" lengthAdjust="spacingAndGlyphs"
text-anchor="middle" opacity="0" stroke-opacity="0">REF**</text>
<g class="stroked-text"><desc>REF**</desc>
<path d="M93.0117 54.4548
L92.6783 53.9786
" />
<path d="M92.4402 54.4548
L92.4402 53.4548
" />
<path d="M92.4402 53.4548
L92.8212 53.4548
" />
<path d="M92.8212 53.4548
L92.9164 53.5024
" />
<path d="M92.9164 53.5024
L92.9640 53.5501
" />
<path d="M92.9640 53.5501
L93.0117 53.6453
" />
<path d="M93.0117 53.6453
L93.0117 53.7882
" />
<path d="M93.0117 53.7882
L92.9640 53.8834
" />
<path d="M92.9640 53.8834
L92.9164 53.9310
" />
<path d="M92.9164 53.9310
L92.8212 53.9786
" />
<path d="M92.8212 53.9786
L92.4402 53.9786
" />
<path d="M93.4402 53.9310
L93.7736 53.9310
" />
<path d="M93.9164 54.4548
L93.4402 54.4548
" />
<path d="M93.4402 54.4548
L93.4402 53.4548
" />
<path d="M93.4402 53.4548
L93.9164 53.4548
" />
<path d="M94.6783 53.9310
L94.3450 53.9310
" />
<path d="M94.3450 54.4548
L94.3450 53.4548
" />
<path d="M94.3450 53.4548
L94.8212 53.4548
" />
<path d="M95.3450 53.4548
L95.3450 53.6929
" />
<path d="M95.1069 53.5977
L95.3450 53.6929
" />
<path d="M95.3450 53.6929
L95.5831 53.5977
" />
<path d="M95.2021 53.8834
L95.3450 53.6929
" />
<path d="M95.3450 53.6929
L95.4879 53.8834
" />
<path d="M96.1069 53.4548
L96.1069 53.6929
" />
<path d="M95.8688 53.5977
L96.1069 53.6929
" />
<path d="M96.1069 53.6929
L96.3450 53.5977
" />
<path d="M95.9640 53.8834
L96.1069 53.6929
" />
<path d="M96.1069 53.6929
L96.2498 53.8834
" />
</g></g>
<g style="fill:none; 
stroke:#000000; stroke-width:0.0600; stroke-opacity:1; 
stroke-linecap:round; stroke-linejoin:round;">
<g transform="rotate(-90.000000 209.4000 70.7000)">
<text x="209.4000" y="70.9000"
textLength="0.8810" font-size="0.5333" lengthAdjust="spacingAndGlyphs"
text-anchor="middle" opacity="0" stroke-opacity="0">C5</text>
</g>
<g class="stroked-text"><desc>C5</desc>
<path d="M209.5438 70.7667
L209.5629 70.7857
" />
<path d="M209.5629 70.7857
L209.5819 70.8429
" />
<path d="M209.5819 70.8429
L209.5819 70.8810
" />
<path d="M209.5819 70.8810
L209.5629 70.9381
" />
<path d="M209.5629 70.9381
L209.5248 70.9762
" />
<path d="M209.5248 70.9762
L209.4867 70.9952
" />
<path d="M209.4867 70.9952
L209.4105 71.0143
" />
<path d="M209.4105 71.0143
L209.3534 71.0143
" />
<path d="M209.3534 71.0143
L209.2772 70.9952
" />
<path d="M209.2772 70.9952
L209.2391 70.9762
" />
<path d="M209.2391 70.9762
L209.2010 70.9381
" />
<path d="M209.2010 70.9381
L209.1819 70.8810
" />
<path d="M209.1819 70.8810
L209.1819 70.8429
" />
<path d="M209.1819 70.8429
L209.2010 70.7857
" />
<path d="M209.2010 70.7857
L209.2200 70.7667
" />
<path d="M209.1819 70.4048
L209.1819 70.5952
" />
<path d="M209.1819 70.5952
L209.3724 70.6143
" />
<path d="M209.3724 70.6143
L209.3534 70.5952
" />
<path d="M209.3534 70.5952
L209.3343 70.5571
" />
<path d="M209.3343 70.5571
L209.3343 70.4619
" />
<path d="M209.3343 70.4619
L209.3534 70.4238
" />
<path d="M209.3534 70.4238
L209.3724 70.4048
" />
<path d="M209.3724 70.4048
L209.4105 70.3857
" />
<path d="M209.4105 70.3857
L209.5057 70.3857
" />
<path d="M209.5057 70.3857
L209.5438 70.4048
" />
<path d="M209.5438 70.4048
L209.5629 70.4238
" />
<path d="M209.5629 70.4238
L209.5819 70.4619
" />
<path d="M209.5819 70.4619
L209.5819 70.5571
" />
<path d="M209.5819 70.5571
L209.5629 70.5952
" />
<path d="M209.5629 70.5952
L209.5438 70.6143
" />
</g><g transform="rotate(-90.000000 155.4000 76.5000)">
<text x="155.4000" y="76.7000"
textLength="0.8810" font-size="0.5333" lengthAdjust="spacingAndGlyphs"
text-anchor="middle" opacity="0" stroke-opacity="0">C1</text>
</g>
<g class="stroked-text"><desc>C1</desc>
<path d="M155.5438 76.5667
L155.5629 76.5857
" />
<path d="M155.5629 76.5857
L155.5819 76.6429
" />
<path d="M155.5819 76.6429
L155.5819 76.6810
" />
<path d="M155.5819 76.6810
L155.5629 76.7381
" />
<path d="M155.5629 76.7381
L155.5248 76.7762
" />
<path d="M155.5248 76.7762
L155.4867 76.7952
" />
<path d="M155.4867 76.7952
L155.4105 76.8143
" />
<path d="M155.4105 76.8143
L155.3534 76.8143
" />
<path d="M155.3534 76.8143
L155.2772 76.7952
" />
<path d="M155.2772 76.7952
L155.2391 76.7762
" />
<path d="M155.2391 76.7762
L155.2010 76.7381
" />
<path d="M155.2010 76.7381
L155.1819 76.6810
" />
<path d="M155.1819 76.6810
L155.1819 76.6429
" />
<path d="M155.1819 76.6429
L155.2010 76.5857
" />
<path d="M155.2010 76.5857
L155.2200 76.5667
" />
<path d="M155.5819 76.1857
L155.5819 76.4143
" />
<path d="M155.5819 76.3000
L155.1819 76.3000
" />
<path d="M155.1819 76.3000
L155.2391 76.3381
" />
<path d="M155.2391 76.3381
L155.2772 76.3762
" />
<path d="M155.2772 76.3762
L155.2962 76.4143
" />
</g></g>
<g style="fill:none; 
stroke:#000000; stroke-width:0.1500; stroke-opacity:1; 
stroke-linecap:round; stroke-linejoin:round;">
<text x="177.7450" y="104.5000"
textLength="4.5357" font-size="1.3333" lengthAdjust="spacingAndGlyphs"
text-anchor="middle" opacity="0" stroke-opacity="0">REF**</text>
<g class="stroked-text"><desc>REF**</desc>
<path d="M176.4117 104.4548
L176.0783 103.9786
" />
<path d="M175.8402 104.4548
L175.8402 103.4548
" />
<path d="M175.8402 103.4548
L176.2212 103.4548
" />
<path d="M176.2212 103.4548
L176.3164 103.5024
" />
<path d="M176.3164 103.5024
L176.3640 103.5501
" />
<path d="M176.3640 103.5501
L176.4117 103.6453
" />
<path d="M176.4117 103.6453
L176.4117 103.7882
" />
<path d="M176.4117 103.7882
L176.3640 103.8834
" />
<path d="M176.3640 103.8834
L176.3164 103.9310
" />
<path d="M176.3164 103.9310
L176.2212 103.9786
" />
<path d="M176.2212 103.9786
L175.8402 103.9786
" />
<path d="M176.8402 103.9310
L177.1736 103.9310
" />
<path d="M177.3164 104.4548
L176.8402 104.4548
" />
<path d="M176.8402 104.4548
L176.8402 103.4548
" />
<path d="M176.8402 103.4548
L177.3164 103.4548
" />
<path d="M178.0783 103.9310
L177.7450 103.9310
" />
<path d="M177.7450 104.4548
L177.7450 103.4548
" />
<path d="M177.7450 103.4548
L178.2212 103.4548
" />
<path d="M178.7450 103.4548
L178.7450 103.6929
" />
<path d="M178.5069 103.5977
L178.7450 103.6929
" />
<path d="M178.7450 103.6929
L178.9831 103.5977
" />
<path d="M178.6021 103.8834
L178.7450 103.6929
" />
<path d="M178.7450 103.6929
L178.8879 103.8834
" />
<path d="M179.5069 103.4548
L179.5069 103.6929
" />
<path d="M179.2688 103.5977
L179.5069 103.6929
" />
<path d="M179.5069 103.6929
L179.7450 103.5977
" />
<path d="M179.3640 103.8834
L179.5069 103.6929
" />
<path d="M179.5069 103.6929
L179.6498 103.8834
" />
</g></g>
<g style="fill:none; 
stroke:#000000; stroke-width:0.0600; stroke-opacity:1; 
stroke-linecap:round; stroke-linejoin:round;">
<g transform="rotate(-90.000000 102.0000 58.8250)">
<text x="102.0000" y="59.0250"
textLength="1.2619" font-size="0.5333" lengthAdjust="spacingAndGlyphs"
text-anchor="middle" opacity="0" stroke-opacity="0">C11</text>
</g>
<g class="stroked-text"><desc>C11</desc>
<path d="M102.1438 59.0821
L102.1629 59.1012
" />
<path d="M102.1629 59.1012
L102.1819 59.1583
" />
<path d="M102.1819 59.1583
L102.1819 59.1964
" />
<path d="M102.1819 59.1964
L102.1629 59.2536
" />
<path d="M102.1629 59.2536
L102.1248 59.2917
" />
<path d="M102.1248 59.2917
L102.0867 59.3107
" />
<path d="M102.0867 59.3107
L102.0105 59.3298
" />
<path d="M102.0105 59.3298
L101.9534 59.3298
" />
<path d="M101.9534 59.3298
L101.8772 59.3107
" />
<path d="M101.8772 59.3107
L101.8391 59.2917
" />
<path d="M101.8391 59.2917
L101.8010 59.2536
" />
<path d="M101.8010 59.2536
L101.7819 59.1964
" />
<path d="M101.7819 59.1964
L101.7819 59.1583
" />
<path d="M101.7819 59.1583
L101.8010 59.1012
" />
<path d="M101.8010 59.1012
L101.8200 59.0821
" />
<path d="M102.1819 58.7012
L102.1819 58.9298
" />
<path d="M102.1819 58.8155
L101.7819 58.8155
" />
<path d="M101.7819 58.8155
L101.8391 58.8536
" />
<path d="M101.8391 58.8536
L101.8772 58.8917
" />
<path d="M101.8772 58.8917
L101.8962 58.9298
" />
<path d="M102.1819 58.3202
L102.1819 58.5488
" />
<path d="M102.1819 58.4345
L101.7819 58.4345
" />
<path d="M101.7819 58.4345
L101.8391 58.4726
" />
<path d="M101.8391 58.4726
L101.8772 58.5107
" />
<path d="M101.8772 58.5107
L101.8962 58.5488
" />
</g></g>
<g style="fill:none; 
stroke:#000000; stroke-width:0.1500; stroke-opacity:1; 
stroke-linecap:round; stroke-linejoin:round;">
<text x="127.0000" y="68.5000"
textLength="1.9643" font-size="1.3333" lengthAdjust="spacingAndGlyphs"
text-anchor="middle" opacity="0" stroke-opacity="0">J8</text>
<g class="stroked-text"><desc>J8</desc>
<path d="M126.6667 67.4548
L126.6667 68.1691
" />
<path d="M126.6667 68.1691
L126.6190 68.3120
" />
<path d="M126.6190 68.3120
L126.5238 68.4072
" />
<path d="M126.5238 68.4072
L126.3810 68.4548
" />
<path d="M126.3810 68.4548
L126.2857 68.4548
" />
<path d="M127.2857 67.8834
L127.1905 67.8358
" />
<path d="M127.1905 67.8358
L127.1429 67.7882
" />
<path d="M127.1429 67.7882
L127.0952 67.6929
" />
<path d="M127.0952 67.6929
L127.0952 67.6453
" />
<path d="M127.0952 67.6453
L127.1429 67.5501
" />
<path d="M127.1429 67.5501
L127.1905 67.5024
" />
<path d="M127.1905 67.5024
L127.2857 67.4548
" />
<path d="M127.2857 67.4548
L127.4762 67.4548
" />
<path d="M127.4762 67.4548
L127.5714 67.5024
" />
<path d="M127.5714 67.5024
L127.6190 67.5501
" />
<path d="M127.6190 67.5501
L127.6667 67.6453
" />
<path d="M127.6667 67.6453
L127.6667 67.6929
" />
<path d="M127.6667 67.6929
L127.6190 67.7882
" />
<path d="M127.6190 67.7882
L127.5714 67.8358
" />
<path d="M127.5714 67.8358
L127.4762 67.8834
" />
<path d="M127.4762 67.8834
L127.2857 67.8834
" />
<path d="M127.2857 67.8834
L127.1905 67.9310
" />
<path d="M127.1905 67.9310
L127.1429 67.9786
" />
<path d="M127.1429 67.9786
L127.0952 68.0739
" />
<path d="M127.0952 68.0739
L127.0952 68.2643
" />
<path d="M127.0952 68.2643
L127.1429 68.3596
" />
<path d="M127.1429 68.3596
L127.1905 68.4072
" />
<path d="M127.1905 68.4072
L127.2857 68.4548
" />
<path d="M127.2857 68.4548
L127.4762 68.4548
" />
<path d="M127.4762 68.4548
L127.5714 68.4072
" />
<path d="M127.5714 68.4072
L127.6190 68.3596
" />
<path d="M127.6190 68.3596
L127.6667 68.2643
" />
<path d="M127.6667 68.2643
L127.6667 68.0739
" />
<path d="M127.6667 68.0739
L127.6190 67.9786
" />
<path d="M127.6190 67.9786
L127.5714 67.9310
" />
<path d="M127.5714 67.9310
L127.4762 67.8834
" />
</g></g>
<g style="fill:none; 
stroke:#000000; stroke-width:0.1000; stroke-opacity:1; 
stroke-linecap:round; stroke-linejoin:round;">
<path d="M216.1375 58.7500
L216.5375 58.3500
" />
<path d="M216.1375 58.7500
L216.5375 59.1500
" />
<path d="M216.5375 48.4500
L233.0175 48.4500
" />
<path d="M216.5375 61.5500
L216.5375 48.4500
" />
<path d="M233.0175 47.4500
L233.1975 47.4500
" />
<path d="M233.0175 48.4500
L233.0175 47.4500
" />
<path d="M233.0175 61.5500
L216.5375 61.5500
" />
<path d="M233.0175 61.5500
L233.0175 62.5500
" />
<path d="M233.0175 62.5500
L233.1975 62.5500
" />
<path d="M233.1975 48.4500
L233.1975 47.4500
" />
<path d="M233.1975 48.4500
L233.1975 61.5500
" />
<path d="M233.1975 61.5500
L233.1975 62.5500
" />
<path d="M83.6500 75.6500
L83.6500 78.9500
" />
<path d="M83.6500 78.9500
L86.1250 78.9500
" />
<path d="M86.1250 78.9500
L86.9500 78.1250
" />
<path d="M86.9500 75.6500
L83.6500 75.6500
" />
<path d="M86.9500 78.1250
L86.9500 75.6500
" />
<path style="fill:none; 
stroke:#000000; stroke-width:0.1000; stroke-opacity:1; 
stroke-linecap:round; stroke-linejoin:round;fill:none"
d="M 83.0000,86.2000
83.8000,86.2000
83.8000,84.6000
83.0000,84.6000
Z" /> 
<path style="fill:none; 
stroke:#000000; stroke-width:0.1000; stroke-opacity:1; 
stroke-linecap:round; stroke-linejoin:round;fill:none"
d="M 86.1875,81.5750
87.0125,81.5750
87.0125,79.9750
86.1875,79.9750
Z" /> 
<path style="fill:none; 
stroke:#000000; stroke-width:0.1000; stroke-opacity:1; 
stroke-linecap:round; stroke-linejoin:round;fill:none"
d="M 139.0000,59.0125
137.4000,59.0125
137.4000,58.1875
139.0000,58.1875
Z" /> 
<path style="fill:none; 
stroke:#000000; stroke-width:0.1000; stroke-opacity:1; 
stroke-linecap:round; stroke-linejoin:round;fill:none"
d="M 139.0000,60.8125
137.4000,60.8125
137.4000,59.9875
139.0000,59.9875
Z" /> 
<path style="fill:none; 
stroke:#000000; stroke-width:0.1000; stroke-opacity:1; 
stroke-linecap:round; stroke-linejoin:round;fill:none"
d="M 111.6000,77.3000
112.4000,77.3000
112.4000,75.7000
111.6000,75.7000
Z" /> 
<path style="fill:none; 
stroke:#000000; stroke-width:0.1000; stroke-opacity:1; 
stroke-linecap:round; stroke-linejoin:round;fill:none"
d="M 214.6000,71.7000
215.4000,71.7000
215.4000,70.1000
214.6000,70.1000
Z" /> 
<path style="fill:none; 
stroke:#000000; stroke-width:0.1000; stroke-opacity:1; 
stroke-linecap:round; stroke-linejoin:round;fill:none"
d="M 181.7000,68.8000
183.3000,68.8000
183.3000,69.6000
181.7000,69.6000
Z" /> 
<path d="M111.5000 101.3000
L111.5000 81.8000
" />
<path d="M112.0000 81.3000
L162.0000 81.3000
" />
<path d="M112.5000 102.3000
L111.5000 101.3000
" />
<path d="M122.9250 94.1750
L124.0750 94.1750
" />
<path d="M122.9250 96.4250
L124.0750 96.4250
" />
<path d="M162.0000 102.3000
L112.5000 102.3000
" />
<path d="M162.5000 81.8000
L162.5000 101.8000
" />
<path style="fill:none; 
stroke:#000000; stroke-width:0.1000; stroke-opacity:1; 
stroke-linecap:round; stroke-linejoin:round;fill:none"
d="M 115.9000,98.0000
116.7000,98.0000
116.7000,97.0000
115.9000,97.0000
Z" /> 
<path style="fill:none; 
stroke:#000000; stroke-width:0.1000; stroke-opacity:1; 
stroke-linecap:round; stroke-linejoin:round;fill:none"
d="M 115.9000,98.3000
116.7000,98.3000
116.7000,96.7000
115.9000,96.7000
Z" /> 
<path style="fill:none; 
stroke:#000000; stroke-width:0.1000; stroke-opacity:1; 
stroke-linecap:round; stroke-linejoin:round;fill:none"
d="M 121.3750,96.9000
125.6250,96.9000
125.6250,93.7000
121.3750,93.7000
Z" /> 
<path d="M112.0000 81.3000 A0.5000 0.5000 0.0 0 0 111.5000 81.8000" />
<path d="M122.9250 94.1750 A1.1250 1.1250 0.0 0 0 122.9250 96.4250" />
<path d="M124.0750 96.4250 A1.1250 1.1250 0.0 0 0 124.0750 94.1750" />
<path d="M162.5000 81.8000 A0.5000 0.5000 0.0 0 0 162.0000 81.3000" />
<path d="M162.0000 102.3000 A0.5000 0.5000 0.0 0 0 162.5000 101.8000" />
<path style="fill:none; 
stroke:#000000; stroke-width:0.1000; stroke-opacity:1; 
stroke-linecap:round; stroke-linejoin:round;fill:none"
d="M 110.8000,88.0100
115.8000,88.0100
115.8000,95.5900
110.8000,95.5900
110.8000,95.8000
110.2000,95.8000
110.2000,87.8000
110.8000,87.8000
Z" /> 
<path style="fill:none; 
stroke:#000000; stroke-width:0.1000; stroke-opacity:1; 
stroke-linecap:round; stroke-linejoin:round;fill:none"
d="M 81.6000,68.8000
80.0000,68.8000
80.0000,68.0000
81.6000,68.0000
Z" /> 
<path style="fill:none; 
stroke:#000000; stroke-width:0.1000; stroke-opacity:1; 
stroke-linecap:round; stroke-linejoin:round;fill:none"
d="M 123.0500,79.4000
121.4500,79.4000
121.4500,78.6000
123.0500,78.6000
Z" /> 
<path style="fill:none; 
stroke:#000000; stroke-width:0.1000; stroke-opacity:1; 
stroke-linecap:round; stroke-linejoin:round;fill:none"
d="M 181.7000,70.6000
183.3000,70.6000
183.3000,71.4000
181.7000,71.4000
Z" /> 
<path style="fill:none; 
stroke:#000000; stroke-width:0.1000; stroke-opacity:1; 
stroke-linecap:round; stroke-linejoin:round;fill:none"
d="M 139.0000,55.4125
137.4000,55.4125
137.4000,54.5875
139.0000,54.5875
Z" /> 
<path style="fill:none; 
stroke:#000000; stroke-width:0.1000; stroke-opacity:1; 
stroke-linecap:round; stroke-linejoin:round;fill:none"
d="M 206.1750,75.7000
207.4250,75.7000
207.4250,73.7000
206.1750,73.7000
Z" /> 
<path d="M72.0275 81.9000
L72.5275 81.4000
" />
<path d="M72.0275 91.4000
L72.0275 81.9000
" />
<path d="M72.5275 81.4000
L72.5275 91.4000
" />
<path d="M72.5275 81.4000
L81.8275 81.4000
" />
<path d="M74.0275 81.4000
L74.0275 91.4000
" />
<path d="M77.5825 85.0380
L75.4895 82.9450
" />
<path d="M77.5825 90.0380
L75.4895 87.9450
" />
<path d="M77.7655 84.8550
L75.6725 82.7620
" />
<path d="M77.7655 89.8550
L75.6725 87.7620
" />
<path d="M78.9275 81.4000
L78.9275 91.4000
" />
<path d="M81.8275 81.4000
L81.8275 91.4000
" />
<path d="M81.8275 91.4000
L72.0275 91.4000
" />
<circle cx="76.6275" cy="83.9000" r="1.5000" /> 
<circle cx="76.6275" cy="88.9000" r="1.5000" /> 
<path style="fill:none; 
stroke:#000000; stroke-width:0.1000; stroke-opacity:1; 
stroke-linecap:round; stroke-linejoin:round;fill:none"
d="M 157.4500,75.7000
156.6500,75.7000
156.6500,77.3000
157.4500,77.3000
Z" /> 
<path style="fill:none; 
stroke:#000000; stroke-width:0.1000; stroke-opacity:1; 
stroke-linecap:round; stroke-linejoin:round;fill:none"
d="M 84.5875,86.2000
85.4125,86.2000
85.4125,84.6000
84.5875,84.6000
Z" /> 
<path d="M121.0250 45.7500
L132.9750 45.7500
" />
<path d="M121.0250 50.7500
L121.0250 45.7500
" />
<path d="M121.0250 50.7500
L132.9750 50.7500
" />
<path d="M123.5000 50.7500
L124.0000 50.0429
" />
<path d="M124.0000 50.0429
L124.5000 50.7500
" />
<path d="M132.9750 50.7500
L132.9750 45.7500
" />
<path style="fill:none; 
stroke:#000000; stroke-width:0.1000; stroke-opacity:1; 
stroke-linecap:round; stroke-linejoin:round;fill:none"
d="M 123.7500,47.2500
124.2500,47.2500
124.2500,47.7500
123.7500,47.7500
Z" /> 
<path style="fill:none; 
stroke:#000000; stroke-width:0.1000; stroke-opacity:1; 
stroke-linecap:round; stroke-linejoin:round;fill:none"
d="M 125.7500,47.2500
126.2500,47.2500
126.2500,47.7500
125.7500,47.7500
Z" /> 
<path style="fill:none; 
stroke:#000000; stroke-width:0.1000; stroke-opacity:1; 
stroke-linecap:round; stroke-linejoin:round;fill:none"
d="M 127.7500,47.2500
128.2500,47.2500
128.2500,47.7500
127.7500,47.7500
Z" /> 
<path style="fill:none; 
stroke:#000000; stroke-width:0.1000; stroke-opacity:1; 
stroke-linecap:round; stroke-linejoin:round;fill:none"
d="M 129.7500,47.2500
130.2500,47.2500
130.2500,47.7500
129.7500,47.7500
Z" /> 
<path d="M100.3500 49.0500
L100.3500 51.0500
" />
<path d="M100.3500 51.0500
L101.2500 51.0500
" />
<path d="M100.3500 52.1500
L100.3500 54.1500
" />
<path d="M100.3500 54.1500
L101.2500 54.1500
" />
<path d="M101.2500 48.7500
L101.2500 54.3500
" />
<path d="M101.2500 48.7500
L101.4500 48.7500
" />
<path d="M101.2500 49.0500
L100.3500 49.0500
" />
<path d="M101.2500 52.1500
L100.3500 52.1500
" />
<path d="M101.3000 54.5000
L102.9500 56.1500
" />
<path d="M101.4500 48.7500
L101.4500 54.3500
" />
<path d="M101.4500 48.7500
L102.6000 47.4000
" />
<path d="M101.4500 54.3500
L101.2500 54.3500
" />
<path d="M101.4500 54.3500
L101.3000 54.5000
" />
<path d="M101.4500 54.3500
L103.1000 56.0000
" />
<path d="M102.9500 56.1500
L103.1000 56.0000
" />
<path d="M103.1000 56.0000
L112.9000 56.0000
" />
<path d="M113.0500 56.1500
L112.9000 56.0000
" />
<path d="M114.5500 48.7500
L113.4000 47.4000
" />
<path d="M114.5500 48.7500
L114.5500 54.3500
" />
<path d="M114.5500 54.3500
L112.9000 56.0000
" />
<path d="M114.5500 54.3500
L114.7000 54.5000
" />
<path d="M114.7000 54.5000
L113.0500 56.1500
" />
<path d="M114.7500 48.7500
L114.5500 48.7500
" />
<path d="M114.7500 48.7500
L114.7500 54.3500
" />
<path d="M114.7500 51.0500
L115.6500 51.0500
" />
<path d="M114.7500 54.3500
L114.5500 54.3500
" />
<path d="M115.6500 49.0500
L114.7500 49.0500
" />
<path d="M115.6500 51.0500
L115.6500 49.0500
" />
<path d="M115.6500 52.1500
L114.7500 52.1500
" />
<path d="M115.6500 54.1500
L114.7500 54.1500
" />
<path d="M115.6500 54.1500
L115.6500 52.1500
" />
<path d="M106.2000 47.4000 A2.5456 2.5456 0.0 0 0 102.6000 47.4000" />
<path d="M106.2000 47.4000 A2.5456 2.5456 0.0 0 0 109.8000 47.4000" />
<path d="M113.4000 47.4000 A2.5456 2.5456 0.0 0 0 109.8000 47.4000" />
<circle cx="108.0000" cy="51.6000" r="6.2500" /> 
<path d="M72.0275 70.3000
L72.5275 69.8000
" />
<path d="M72.0275 79.8000
L72.0275 70.3000
" />
<path d="M72.5275 69.8000
L72.5275 79.8000
" />
<path d="M72.5275 69.8000
L81.8275 69.8000
" />
<path d="M74.0275 69.8000
L74.0275 79.8000
" />
<path d="M77.5825 73.4380
L75.4895 71.3450
" />
<path d="M77.5825 78.4380
L75.4895 76.3450
" />
<path d="M77.7655 73.2550
L75.6725 71.1620
" />
<path d="M77.7655 78.2550
L75.6725 76.1620
" />
<path d="M78.9275 69.8000
L78.9275 79.8000
" />
<path d="M81.8275 69.8000
L81.8275 79.8000
" />
<path d="M81.8275 79.8000
L72.0275 79.8000
" />
<circle cx="76.6275" cy="72.3000" r="1.5000" /> 
<circle cx="76.6275" cy="77.3000" r="1.5000" /> 
<path style="fill:none; 
stroke:#000000; stroke-width:0.1000; stroke-opacity:1; 
stroke-linecap:round; stroke-linejoin:round;fill:none"
d="M 115.8125,69.9000
114.9875,69.9000
114.9875,71.5000
115.8125,71.5000
Z" /> 
<path style="fill:none; 
stroke:#000000; stroke-width:0.1000; stroke-opacity:1; 
stroke-linecap:round; stroke-linejoin:round;fill:none"
d="M 213.7000,73.2000
210.7000,73.2000
210.7000,76.2000
213.7000,76.2000
Z" /> 
<path d="M83.8000 69.4500
L86.8000 69.4500
" />
<path d="M83.8000 74.0500
L83.8000 69.4500
" />
<path d="M84.5497 72.2512
L86.0991 72.2512
" />
<path d="M85.2990 71.1006
L84.5497 72.2512
" />
<path d="M85.2990 71.1006
L85.2990 70.1989
" />
<path d="M85.2990 71.1006
L86.0991 72.2512
" />
<path d="M85.2990 72.2512
L85.2990 73.2494
" />
<path d="M86.0991 71.1006
L84.4989 71.1006
" />
<path d="M86.8000 74.0500
L83.8000 74.0500
" />
<path d="M86.8000 74.0500
L86.8000 69.4500
" />
<path style="fill:none; 
stroke:#000000; stroke-width:0.1000; stroke-opacity:1; 
stroke-linecap:round; stroke-linejoin:round;fill:none"
d="M 114.9875,68.4000
115.8125,68.4000
115.8125,66.8000
114.9875,66.8000
Z" /> 
<path style="fill:none; 
stroke:#000000; stroke-width:0.1000; stroke-opacity:1; 
stroke-linecap:round; stroke-linejoin:round;fill:none"
d="M 113.3500,77.3000
114.1500,77.3000
114.1500,75.7000
113.3500,75.7000
Z" /> 
<path style="fill:none; 
stroke:#000000; stroke-width:0.1000; stroke-opacity:1; 
stroke-linecap:round; stroke-linejoin:round;fill:none"
d="M 123.0500,77.6500
121.4500,77.6500
121.4500,76.8500
123.0500,76.8500
Z" /> 
<path style="fill:none; 
stroke:#000000; stroke-width:0.1000; stroke-opacity:1; 
stroke-linecap:round; stroke-linejoin:round;fill:none"
d="M 85.4125,79.9750
84.5875,79.9750
84.5875,81.5750
85.4125,81.5750
Z" /> 
<path style="fill:none; 
stroke:#000000; stroke-width:0.1000; stroke-opacity:1; 
stroke-linecap:round; stroke-linejoin:round;fill:none"
d="M 137.4000,61.7875
139.0000,61.7875
139.0000,62.6125
137.4000,62.6125
Z" /> 
<path style="fill:none; 
stroke:#000000; stroke-width:0.1000; stroke-opacity:1; 
stroke-linecap:round; stroke-linejoin:round;fill:none"
d="M 139.0000,57.2125
137.4000,57.2125
137.4000,56.3875
139.0000,56.3875
Z" /> 
<path style="fill:none; 
stroke:#000000; stroke-width:0.1000; stroke-opacity:1; 
stroke-linecap:round; stroke-linejoin:round;fill:none"
d="M 137.4000,63.5875
139.0000,63.5875
139.0000,64.4125
137.4000,64.4125
Z" /> 
<path d="M218.3000 68.0000
L218.3000 70.8000
" />
<path d="M218.3000 70.8000
L219.0000 70.8000
" />
<path d="M219.0000 70.8000
L219.0000 77.7000
" />
<path d="M219.0000 77.7000
L220.8500 77.7000
" />
<path d="M220.8500 77.0000
L221.2650 77.0000
" />
<path d="M220.8500 77.7000
L220.8500 77.0000
" />
<path d="M221.2650 77.0000
L221.8450 76.1000
" />
<path d="M221.8450 76.1000
L222.4250 77.0000
" />
<path d="M222.4250 77.0000
L233.0000 77.0000
" />
<path d="M233.0000 68.0000
L218.3000 68.0000
" />
<path d="M233.0000 77.0000
L233.0000 68.0000
" />
<path style="fill:none; 
stroke:#000000; stroke-width:0.1000; stroke-opacity:1; 
stroke-linecap:round; stroke-linejoin:round;fill:none"
d="M 213.6500,70.1000
213.6500,71.3000
210.7500,71.3000
210.7500,69.7000
213.2500,69.7000
Z" /> 
<path d="M122.0250 55.2500
L131.9750 55.2500
" />
<path d="M122.0250 60.2500
L122.0250 55.2500
" />
<path d="M122.0250 60.2500
L131.9750 60.2500
" />
<path d="M124.5000 60.2500
L125.0000 59.5429
" />
<path d="M125.0000 59.5429
L125.5000 60.2500
" />
<path d="M131.9750 60.2500
L131.9750 55.2500
" />
<path style="fill:none; 
stroke:#000000; stroke-width:0.1000; stroke-opacity:1; 
stroke-linecap:round; stroke-linejoin:round;fill:none"
d="M 124.7500,56.7500
125.2500,56.7500
125.2500,57.2500
124.7500,57.2500
Z" /> 
<path style="fill:none; 
stroke:#000000; stroke-width:0.1000; stroke-opacity:1; 
stroke-linecap:round; stroke-linejoin:round;fill:none"
d="M 126.7500,56.7500
127.2500,56.7500
127.2500,57.2500
126.7500,57.2500
Z" /> 
<path style="fill:none; 
stroke:#000000; stroke-width:0.1000; stroke-opacity:1; 
stroke-linecap:round; stroke-linejoin:round;fill:none"
d="M 128.7500,56.7500
129.2500,56.7500
129.2500,57.2500
128.7500,57.2500
Z" /> 
<path d="M83.6500 87.2500
L83.6500 90.5500
" />
<path d="M83.6500 90.5500
L86.1250 90.5500
" />
<path d="M86.1250 90.5500
L86.9500 89.7250
" />
<path d="M86.9500 87.2500
L83.6500 87.2500
" />
<path d="M86.9500 89.7250
L86.9500 87.2500
" />
<path d="M140.8000 43.1500
L140.8000 73.6500
" />
<path d="M140.8000 43.1500
L168.8000 43.1500
" />
<path d="M140.8000 73.6500
L144.3000 73.6500
" />
<path d="M144.3000 72.3500
L166.7000 72.3500
" />
<path d="M144.3000 73.6500
L144.3000 72.3500
" />
<path d="M166.7000 72.3500
L166.7000 73.6500
" />
<path d="M168.8000 73.6500
L166.7000 73.6500
" />
<path d="M168.8000 73.6500
L168.8000 43.1500
" />
<path style="fill:none; 
stroke:#000000; stroke-width:0.1000; stroke-opacity:1; 
stroke-linecap:round; stroke-linejoin:round;fill:none"
d="M 209.8000,69.9000
209.0000,69.9000
209.0000,71.5000
209.8000,71.5000
Z" /> 
<path style="fill:none; 
stroke:#000000; stroke-width:0.1000; stroke-opacity:1; 
stroke-linecap:round; stroke-linejoin:round;fill:none"
d="M 155.8000,75.7000
155.0000,75.7000
155.0000,77.3000
155.8000,77.3000
Z" /> 
<path style="fill:none; 
stroke:#000000; stroke-width:0.1000; stroke-opacity:1; 
stroke-linecap:round; stroke-linejoin:round;fill:none"
d="M 208.3750,75.7000
209.6250,75.7000
209.6250,73.7000
208.3750,73.7000
Z" /> 
<path style="fill:none; 
stroke:#000000; stroke-width:0.1000; stroke-opacity:1; 
stroke-linecap:round; stroke-linejoin:round;fill:none"
d="M 111.7500,70.1500
110.7500,71.1500
104.2500,71.1500
104.2500,60.8500
111.7500,60.8500
Z" /> 
<path style="fill:none; 
stroke:#000000; stroke-width:0.1000; stroke-opacity:1; 
stroke-linecap:round; stroke-linejoin:round;fill:none"
d="M 87.0125,84.6000
86.1875,84.6000
86.1875,86.2000
87.0125,86.2000
Z" /> 
<path style="fill:none; 
stroke:#000000; stroke-width:0.1000; stroke-opacity:1; 
stroke-linecap:round; stroke-linejoin:round;fill:none"
d="M 102.4000,58.0250
101.6000,58.0250
101.6000,59.6250
102.4000,59.6250
Z" /> 
<path d="M122.0250 64.7500
L131.9750 64.7500
" />
<path d="M122.0250 69.7500
L122.0250 64.7500
" />
<path d="M122.0250 69.7500
L131.9750 69.7500
" />
<path d="M124.5000 69.7500
L125.0000 69.0429
" />
<path d="M125.0000 69.0429
L125.5000 69.7500
" />
<path d="M131.9750 69.7500
L131.9750 64.7500
" />
<path style="fill:none; 
stroke:#000000; stroke-width:0.1000; stroke-opacity:1; 
stroke-linecap:round; stroke-linejoin:round;fill:none"
d="M 124.7500,66.2500
125.2500,66.2500
125.2500,66.7500
124.7500,66.7500
Z" /> 
<path style="fill:none; 
stroke:#000000; stroke-width:0.1000; stroke-opacity:1; 
stroke-linecap:round; stroke-linejoin:round;fill:none"
d="M 126.7500,66.2500
127.2500,66.2500
127.2500,66.7500
126.7500,66.7500
Z" /> 
<path style="fill:none; 
stroke:#000000; stroke-width:0.1000; stroke-opacity:1; 
stroke-linecap:round; stroke-linejoin:round;fill:none"
d="M 128.7500,66.2500
129.2500,66.2500
129.2500,66.7500
128.7500,66.7500
Z" /> 
</g> 
</svg>
